<svg width="33" height="33" viewBox="0 0 33 33" fill="none" xmlns="http://www.w3.org/2000/svg">
<path d="M16.7069 8.84685C12.1983 8.84685 8.76272 12.2814 8.76272 16.791C8.76272 21.3007 12.1983 24.7352 16.7069 24.7352C21.2155 24.7352 24.651 21.3007 24.651 16.791C24.651 12.2814 21.2155 8.84685 16.7069 8.84685ZM16.7069 22.0871C13.7933 22.0871 11.4108 19.7124 11.4108 16.791C11.4108 13.8697 13.7862 11.4949 16.7069 11.4949C19.6276 11.4949 22.003 13.8697 22.003 16.791C22.003 19.7124 19.6205 22.0871 16.7069 22.0871ZM27.2991 8.84685C27.2991 9.90336 25.7002 10.1709 24.651 10.1709C23.5948 10.1709 23.327 9.89627 23.327 8.84685C23.327 7.79744 23.6019 6.1988 24.651 6.1988C25.7002 6.1988 27.2991 7.79744 27.2991 8.84685ZM32.5952 10.1709C32.4747 7.62535 31.8116 5.40849 29.9472 3.55075C28.0898 1.693 25.872 1.03032 23.327 0.902693C20.7041 0.75379 12.7097 0.75379 10.0868 0.902693C7.54887 1.02323 5.33103 1.693 3.46662 3.55075C1.6022 5.40849 0.946164 7.62535 0.818562 10.1709C0.669692 12.7944 0.669692 20.7876 0.818562 23.4112C0.939075 25.9567 1.6022 28.1735 3.46662 30.0313C5.33103 31.889 7.54178 32.5517 10.0868 32.6793C12.7097 32.8282 20.7041 32.8282 23.327 32.6793C25.872 32.5588 28.0898 31.8961 29.9472 30.0313C31.8045 28.1735 32.4676 25.9567 32.5952 23.4112C32.7441 20.7876 32.7441 12.7944 32.5952 10.1709ZM28.6231 26.0592C28.0702 27.449 27.3716 28.1471 25.9751 28.7073C23.8838 29.5369 19.0179 30.0313 16.7069 30.0313C14.3959 30.0313 9.52287 29.5298 7.4387 28.7073C6.04924 28.1542 5.35068 27.4561 4.79064 26.0592C3.96122 23.9675 3.46662 19.1026 3.46662 16.791C3.46662 14.4795 3.96831 9.60747 4.79064 7.52283C5.34359 6.13306 6.04215 5.43493 7.4387 4.87477C9.52996 4.04517 14.3959 3.55075 16.7069 3.55075C19.0179 3.55075 23.8909 4.05226 25.9751 4.87477C27.3645 5.42784 28.0631 6.12597 28.6231 7.52283C29.4525 9.61456 29.9472 14.4795 29.9472 16.791C29.9472 19.1026 29.4525 23.9746 28.6231 26.0592Z" fill="#F0EAE5"/>
</svg>
