<svg width="33" height="33" viewBox="0 0 33 33" fill="none" xmlns="http://www.w3.org/2000/svg">
<path d="M32.5936 28.4532V3.56434C32.5936 1.60879 30.9883 0.00878906 29.0292 0.00878906H4.15807C2.11363 0.00878906 0.593628 1.52523 0.593628 3.56434V28.4532C0.593628 30.4941 2.11363 32.0088 4.15807 32.0088H29.0292C29.9726 32.0074 30.877 31.6326 31.5449 30.9664C32.2128 30.3001 32.5899 29.3966 32.5936 28.4532ZM25.8096 18.8657C25.8096 18.8657 27.8221 20.8515 28.3181 21.7723C28.3323 21.7919 28.3376 21.8097 28.343 21.8168C28.5438 22.1546 28.5954 22.4212 28.4941 22.6168C28.327 22.9421 27.7581 23.1057 27.5643 23.1199H24.0105C23.7616 23.1199 23.2461 23.0559 22.6203 22.6239C22.1403 22.2897 21.6656 21.7368 21.2034 21.1981C20.5136 20.3981 19.9163 19.7048 19.3154 19.7048C19.2392 19.7046 19.1635 19.7172 19.0914 19.7421C18.6345 19.8879 18.055 20.5368 18.055 22.2701C18.055 22.8123 17.6283 23.1217 17.3261 23.1217H15.6976C15.143 23.1217 12.2541 22.9279 9.69585 20.2275C6.55629 16.9208 3.73674 10.2879 3.71185 10.2292C3.53407 9.80079 3.90207 9.5679 4.30207 9.5679H7.89318C8.37496 9.5679 8.52963 9.85946 8.63985 10.1208C8.76429 10.4177 9.23363 11.6159 10.0016 12.9635C11.2514 15.1555 12.0212 16.0479 12.6345 16.0479C12.7492 16.0473 12.8618 16.0173 12.9616 15.9608C13.7634 15.5181 13.6141 12.6595 13.5785 12.0692C13.5785 11.9572 13.5767 10.791 13.1679 10.231C12.8727 9.82568 12.3732 9.67101 12.071 9.61234C12.1942 9.44253 12.3564 9.30475 12.5439 9.21057C13.0932 8.93679 14.0834 8.89768 15.0683 8.89768H15.6158C16.6843 8.9119 16.9616 8.98123 17.3474 9.07901C18.1278 9.26568 18.1439 9.77234 18.0745 11.4968C18.055 11.9875 18.0336 12.5439 18.0336 13.1963C18.0336 13.3368 18.0283 13.4915 18.0283 13.6515C18.0034 14.5332 17.975 15.5306 18.5972 15.9395C18.6777 15.9898 18.7706 16.0169 18.8656 16.0177C19.0825 16.0177 19.7314 16.0177 21.4896 13.0008C22.263 11.6692 22.8585 10.0977 22.8994 9.98034C22.9615 9.85349 23.0515 9.74228 23.1625 9.65501C23.2536 9.60771 23.355 9.58388 23.4576 9.58568H27.6798C28.1421 9.58568 28.455 9.65501 28.5136 9.83101C28.615 10.1137 28.4941 10.9759 26.5652 13.5821L25.7065 14.7199C23.9572 17.0097 23.9572 17.127 25.8096 18.8657Z" fill="#F0EAE5"/>
</svg>
